<svg width="19" height="18" viewBox="0 0 19 18" fill="none" xmlns="http://www.w3.org/2000/svg">
<g clip-path="url(#clip0_732_32738)">
<path d="M4.90625 8.25C4.90625 6.129 4.90625 5.06775 5.6534 4.40925C6.3997 3.75 7.60245 3.75 10.0063 3.75H12.5563C14.9601 3.75 16.1628 3.75 16.9091 4.40925C17.6563 5.06775 17.6563 6.129 17.6563 8.25V12C17.6563 14.121 17.6563 15.1823 16.9091 15.8408C16.1628 16.5 14.9601 16.5 12.5563 16.5H10.0063C7.60245 16.5 6.3997 16.5 5.6534 15.8408C4.90625 15.1823 4.90625 14.121 4.90625 12V8.25Z" stroke="#6B7280"/>
<path d="M5.20625 14.25C4.52995 14.25 3.88135 14.0129 3.40313 13.591C2.92491 13.169 2.65625 12.5967 2.65625 12V7.5C2.65625 4.67175 2.65625 3.25725 3.65245 2.379C4.64865 1.50075 6.2509 1.5 9.45625 1.5H12.8563C13.5326 1.5 14.1812 1.73705 14.6594 2.15901C15.1376 2.58097 15.4063 3.15326 15.4063 3.75" stroke="#6B7280"/>
</g>
<defs>
<clipPath id="clip0_732_32738">
<rect width="18" height="18" fill="white" transform="translate(0.40625)"/>
</clipPath>
</defs>
</svg>
