<svg width="54" height="54" viewBox="0 0 54 54" fill="none" xmlns="http://www.w3.org/2000/svg">
<g clip-path="url(#clip0_584_16415)">
<path d="M18.8138 1.77342C13.4184 3.64514 8.76535 7.19774 5.53821 11.9094C2.31106 16.621 0.679898 22.2434 0.8843 27.9506C1.0887 33.6578 3.1179 39.1491 6.67384 43.6178C10.2298 48.0865 15.125 51.2971 20.6405 52.7781C25.1121 53.9319 29.7969 53.9826 34.2924 52.9258C38.3648 52.011 42.1299 50.0543 45.219 47.2473C48.434 44.2366 50.7676 40.4065 51.969 36.1689C53.2748 31.5606 53.5071 26.7144 52.6482 22.0023H27.5382V32.4184H42.0802C41.7896 34.0797 41.1668 35.6653 40.2491 37.0803C39.3314 38.4953 38.1376 39.7105 36.7393 40.6534C34.9635 41.828 32.9618 42.6184 30.8626 42.9737C28.7572 43.3652 26.5976 43.3652 24.4922 42.9737C22.3584 42.5325 20.3397 41.6518 18.5649 40.3876C15.7137 38.3693 13.5728 35.502 12.4477 32.1948C11.3037 28.8257 11.3037 25.1732 12.4477 21.804C13.2485 19.4425 14.5724 17.2922 16.3205 15.5139C18.321 13.4414 20.8537 11.96 23.6407 11.2322C26.4277 10.5044 29.3614 10.5582 32.1197 11.3879C34.2746 12.0494 36.245 13.2051 37.8741 14.7629C39.5138 13.1317 41.1507 11.4962 42.7847 9.85654C43.6285 8.97482 44.5482 8.13529 45.3793 7.23248C42.8926 4.91839 39.9737 3.11775 36.7899 1.93373C30.9921 -0.171471 24.6482 -0.228046 18.8138 1.77342Z" fill="white"/>
<path d="M18.8111 1.77547C24.6451 -0.227356 30.9889 -0.17227 36.7872 1.93156C39.9716 3.12362 42.8891 4.93294 45.3723 7.25562C44.5286 8.15843 43.6384 9.00218 42.7778 9.87968C41.1409 11.5137 39.5055 13.1422 37.8714 14.765C36.2423 13.2072 34.2718 12.0515 32.117 11.39C29.3596 10.5574 26.426 10.5004 23.6383 11.2252C20.8505 11.9501 18.3163 13.4288 16.3136 15.4991C14.5655 17.2774 13.2416 19.4276 12.4408 21.7892L3.69531 15.0181C6.82566 8.81049 12.2457 4.06213 18.8111 1.77547Z" fill="#E33629"/>
<path d="M1.37468 21.7234C1.84473 19.3938 2.62513 17.1378 3.69499 15.0156L12.4405 21.8036C11.2964 25.1727 11.2964 28.8253 12.4405 32.1944C9.52671 34.4444 6.61155 36.7056 3.69499 38.9781C1.01672 33.647 0.199891 27.5727 1.37468 21.7234Z" fill="#F8BD00"/>
<path d="M27.5331 22H52.6431C53.5021 26.7121 53.2697 31.5583 51.9639 36.1666C50.7626 40.4042 48.4289 44.2343 45.2139 47.245C42.3916 45.0428 39.5566 42.8575 36.7342 40.6553C38.1335 39.7115 39.3278 38.4949 40.2455 37.0784C41.1633 35.6619 41.7856 34.0747 42.0752 32.4119H27.5331C27.5289 28.9441 27.5331 25.472 27.5331 22Z" fill="#587DBD"/>
<path d="M3.6875 38.9791C6.60406 36.7291 9.51922 34.4678 12.433 32.1953C13.5603 35.5036 15.7042 38.3711 18.5586 40.3881C20.3389 41.6464 22.3619 42.52 24.4986 42.9531C26.604 43.3446 28.7635 43.3446 30.8689 42.9531C32.9681 42.5978 34.9699 41.8074 36.7456 40.6328C39.568 42.835 42.403 45.0203 45.2253 47.2225C42.1367 50.031 38.3716 51.9892 34.2987 52.9052C29.8033 53.962 25.1184 53.9113 20.6469 52.7575C17.1103 51.8132 13.8069 50.1486 10.9438 47.868C7.91326 45.462 5.43809 42.4299 3.6875 38.9791Z" fill="#319F43"/>
</g>
<defs>
<clipPath id="clip0_584_16415">
<rect width="54" height="54" fill="white"/>
</clipPath>
</defs>
</svg>
