<svg width="46" height="54" viewBox="0 0 46 54" fill="none" xmlns="http://www.w3.org/2000/svg">
<g clip-path="url(#clip0_584_16429)">
<path d="M6.2587 0L21.4762 14.1393V0.0326175H24.4386V14.2025L39.7242 0V16.121H46V39.374H39.7435V53.7289L24.4386 40.1686V53.8846H21.4762V40.392L6.27595 53.8934V39.374H0V16.121H6.2587V0ZM19.2429 19.0718H2.96251V36.423H6.27235V30.9498L19.2429 19.0718ZM9.23791 32.2592V47.3089L21.4762 36.4386V21.0493L9.23791 32.2592ZM24.5237 36.2947V21.0348L36.7655 32.2453V39.374H36.7813V47.1551L24.5237 36.2947ZM39.7435 36.423H43.0377V19.0718H26.8784L39.7435 30.8268V36.423ZM36.7619 16.121V6.78751L26.7167 16.121H36.7619ZM19.2661 16.121H9.22102V6.78751L19.2661 16.121Z" fill="#3F7E8B"/>
</g>
<defs>
<clipPath id="clip0_584_16429">
<rect width="46" height="54" fill="white"/>
</clipPath>
</defs>
</svg>
